<svg width="96" height="48" viewBox="0 0 96 48" fill="none" xmlns="http://www.w3.org/2000/svg">
<path d="M85.2198 4C85.2198 3.73478 85.1144 3.48051 84.9268 3.29297C84.7393 3.10552 84.4849 3 84.2198 3L83.7803 3C83.5152 3 83.2608 3.10552 83.0733 3.29297C82.8858 3.48051 82.7803 3.73478 82.7803 4V4.18066C82.7798 4.70675 82.6403 5.22422 82.377 5.67969C82.1138 6.13494 81.7358 6.51341 81.2804 6.77637L81.2794 6.77539L80.8526 7.02441L80.8497 7.02637C80.3938 7.28951 79.8761 7.42773 79.3497 7.42773C78.8232 7.42767 78.3056 7.28961 77.8497 7.02637L77.7296 6.96191L77.7003 6.94629C77.4708 6.81395 77.1984 6.77825 76.9425 6.84668C76.7184 6.9066 76.523 7.04184 76.3888 7.22852L76.3351 7.31152L76.1153 7.69141C75.9838 7.92042 75.9486 8.19208 76.0167 8.44727C76.0766 8.67125 76.212 8.86674 76.3985 9.00098L76.4815 9.05469L76.5353 9.08789L76.6847 9.1875C77.1138 9.44748 77.4712 9.80977 77.7237 10.2441C77.9869 10.6968 78.1268 11.2108 78.13 11.7344V12.2461L78.1241 12.4434C78.0956 12.9034 77.9621 13.3518 77.7315 13.7529C77.4709 14.2065 77.0951 14.5827 76.6436 14.8467L76.6446 14.8477L76.4942 14.9375L76.4815 14.9453C76.2523 15.0781 76.0851 15.2968 76.0167 15.5527C75.9486 15.8079 75.9838 16.0796 76.1153 16.3086L76.3341 16.6885C76.4668 16.9177 76.6866 17.0849 76.9425 17.1533C77.1984 17.2217 77.4708 17.186 77.7003 17.0537L77.7296 17.0381L77.8497 16.9736L78.0235 16.8809C78.4352 16.6779 78.889 16.5723 79.3497 16.5723C79.8103 16.5723 80.2643 16.6781 80.6759 16.8809L80.8497 16.9736L80.8526 16.9756L81.2794 17.2236C81.7348 17.4866 82.1138 17.8651 82.377 18.3203C82.6403 18.7758 82.7798 19.2932 82.7803 19.8193V20C82.7803 20.2652 82.8858 20.5195 83.0733 20.707C83.2608 20.8945 83.5152 21 83.7803 21H84.2198C84.4849 21 84.7393 20.8945 84.9268 20.707C85.1144 20.5195 85.2198 20.2652 85.2198 20V19.8193L85.2266 19.6221C85.2572 19.1646 85.3928 18.7188 85.6231 18.3203C85.8534 17.922 86.1718 17.5829 86.5528 17.3281L86.7198 17.2236L87.1475 16.9756L87.1505 16.9736L87.3243 16.8809C87.7359 16.6781 88.1898 16.5723 88.6505 16.5723C89.1769 16.5723 89.6945 16.7104 90.1505 16.9736L90.2999 17.0537C90.5293 17.186 90.8018 17.2217 91.0577 17.1533C91.3136 17.0849 91.5323 16.9177 91.6651 16.6885L91.879 16.3086L91.8839 16.3008L91.9288 16.2119C92.0233 16.0026 92.0433 15.7658 91.9835 15.542C91.915 15.2862 91.7477 15.0683 91.5186 14.9355L91.3995 14.8721C91.3897 14.8669 91.3798 14.862 91.3702 14.8564C90.9124 14.5921 90.532 14.2113 90.2686 13.7529C90.0052 13.2946 89.8681 12.7747 89.8702 12.2461V11.75C89.8688 11.2228 90.0059 10.7042 90.2686 10.2471C90.5292 9.79359 90.9042 9.41629 91.3555 9.15234L91.5059 9.0625L91.5186 9.05469L91.6016 9.00098C91.7882 8.86674 91.9236 8.67125 91.9835 8.44727C92.0516 8.19208 92.0163 7.92042 91.8848 7.69141L91.6651 7.31055C91.5323 7.08132 91.3136 6.91512 91.0577 6.84668C90.8337 6.7868 90.5972 6.80674 90.3878 6.90137L90.2999 6.94629C90.2903 6.95181 90.2803 6.95672 90.2706 6.96191L90.1495 7.02539L90.1505 7.02637C89.6945 7.28961 89.1769 7.42767 88.6505 7.42773C88.124 7.42773 87.6064 7.28951 87.1505 7.02637L87.1475 7.02441L86.7198 6.77539C86.2644 6.51244 85.8864 6.13494 85.6231 5.67969C85.3598 5.22422 85.2203 4.70675 85.2198 4.18066V4ZM87.2198 4.17871L87.2286 4.30957C87.2458 4.43914 87.2887 4.56482 87.3546 4.67871C87.4204 4.79256 87.5077 4.89215 87.6114 4.97168L87.7227 5.0459L88.1495 5.29395C88.3014 5.38161 88.475 5.42773 88.6505 5.42773C88.8259 5.42767 88.9986 5.38165 89.1505 5.29395L89.1798 5.27734L89.3292 5.19727C90.0116 4.81347 90.8171 4.71164 91.5743 4.91406C92.246 5.09369 92.8317 5.50011 93.2344 6.05957L93.3956 6.30859L93.6153 6.68945L93.6163 6.69043L93.752 6.9541C94.0358 7.58214 94.0956 8.29226 93.9161 8.96387C93.7121 9.72683 93.2144 10.3773 92.5333 10.7764L92.5342 10.7773L92.3702 10.876C92.2176 10.9641 92.0908 11.0914 92.003 11.2441C91.9153 11.3968 91.8695 11.57 91.8702 11.7461V12.2539C91.8695 12.43 91.9153 12.6032 92.003 12.7559C92.0894 12.9063 92.2139 13.0312 92.3634 13.1191L92.4903 13.1875L92.5216 13.2051L92.7706 13.3662C93.3298 13.7689 93.7365 14.3539 93.9161 15.0254C94.1205 15.7898 94.0131 16.6035 93.6202 17.29L93.6212 17.291L93.4014 17.6816L93.3956 17.6914C92.9972 18.3791 92.342 18.8806 91.5743 19.0859C90.817 19.2884 90.0116 19.1848 89.3292 18.8008V18.8027L89.1798 18.7227C89.17 18.7174 89.1601 18.7116 89.1505 18.7061C88.9986 18.6184 88.8259 18.5723 88.6505 18.5723C88.475 18.5723 88.3024 18.6184 88.1505 18.7061L88.1495 18.7051L87.7227 18.9541L87.6114 19.0283C87.5077 19.1079 87.4204 19.2074 87.3546 19.3213C87.2668 19.4731 87.22 19.6459 87.2198 19.8213V20C87.2198 20.7955 86.9043 21.5585 86.3419 22.1211C85.7793 22.6837 85.0154 23 84.2198 23H83.7803C82.9847 23 82.2209 22.6837 81.6583 22.1211C81.0959 21.5585 80.7804 20.7955 80.7804 20V19.8213L80.7716 19.6904C80.7544 19.5609 80.7114 19.4352 80.6456 19.3213C80.5797 19.2074 80.4925 19.1079 80.3888 19.0283L80.2774 18.9541L79.8497 18.7051C79.6978 18.6174 79.5251 18.5723 79.3497 18.5723C79.2182 18.5723 79.0886 18.5985 78.9679 18.6484L78.8497 18.7061C78.8401 18.7116 78.8302 18.7174 78.8204 18.7227L78.671 18.8027L78.67 18.8008C77.9877 19.1844 77.1829 19.2883 76.4259 19.0859C75.7541 18.9063 75.1684 18.4999 74.7657 17.9404L74.6046 17.6914L74.3849 17.3105L74.3839 17.3096C73.9869 16.6213 73.879 15.8037 74.0841 15.0361C74.2881 14.2733 74.785 13.6217 75.4659 13.2227L75.63 13.124L75.7394 13.0508C75.8435 12.9708 75.9313 12.8705 75.9972 12.7559C76.0849 12.6032 76.1307 12.43 76.13 12.2539V11.7461L76.1212 11.6162C76.1035 11.4873 76.0601 11.3622 75.9942 11.249C75.9284 11.136 75.8416 11.037 75.7384 10.958L75.63 10.8857L75.5753 10.8516L75.4259 10.752C74.7661 10.351 74.2839 9.71127 74.0841 8.96387C73.879 8.19629 73.9869 7.37867 74.3839 6.69043L74.3849 6.68848L74.6046 6.30859L74.7657 6.05957C75.1684 5.50011 75.7541 5.09369 76.4259 4.91406C77.1828 4.71171 77.9878 4.81479 78.67 5.19824L78.671 5.19727L78.8204 5.27734L78.8497 5.29395L78.9679 5.35156C79.0886 5.40153 79.2182 5.42768 79.3497 5.42773C79.4814 5.42773 79.6116 5.40162 79.7325 5.35156L79.8497 5.29395L80.2774 5.0459L80.3888 4.97168C80.4925 4.89215 80.5797 4.79256 80.6456 4.67871C80.7332 4.52709 80.7801 4.3548 80.7804 4.17969V4C80.7804 3.20452 81.0959 2.44148 81.6583 1.87891C82.2209 1.3163 82.9847 1 83.7803 1H84.2198C85.0154 1 85.7793 1.3163 86.3419 1.87891C86.9043 2.44148 87.2198 3.20452 87.2198 4V4.17871Z" fill="#565D6D"/>
<path d="M86 12C86 10.8954 85.1046 10 84 10C82.8954 10 82 10.8954 82 12C82 13.1046 82.8954 14 84 14C85.1046 14 86 13.1046 86 12ZM88 12C88 14.2091 86.2091 16 84 16C81.7909 16 80 14.2091 80 12C80 9.79086 81.7909 8 84 8C86.2091 8 88 9.79086 88 12Z" fill="#565D6D"/>
<path d="M85.2198 28C85.2198 27.7348 85.1144 27.4805 84.9268 27.293C84.7393 27.1055 84.4849 27 84.2198 27H83.7803C83.5152 27 83.2608 27.1055 83.0733 27.293C82.8858 27.4805 82.7803 27.7348 82.7803 28V28.1807C82.7798 28.7067 82.6403 29.2242 82.377 29.6797C82.1138 30.1349 81.7358 30.5134 81.2804 30.7764L81.2794 30.7754L80.8526 31.0244L80.8497 31.0264C80.3938 31.2895 79.8761 31.4277 79.3497 31.4277C78.8232 31.4277 78.3056 31.2896 77.8497 31.0264L77.7296 30.9619L77.7003 30.9463C77.4708 30.814 77.1984 30.7783 76.9425 30.8467C76.7184 30.9066 76.523 31.0418 76.3888 31.2285L76.3351 31.3115L76.1153 31.6914C75.9838 31.9204 75.9486 32.1921 76.0167 32.4473C76.0766 32.6713 76.212 32.8667 76.3985 33.001L76.4815 33.0547L76.5353 33.0879L76.6847 33.1875C77.1138 33.4475 77.4712 33.8098 77.7237 34.2441C77.9869 34.6968 78.1268 35.2108 78.13 35.7344V36.2461L78.1241 36.4434C78.0956 36.9034 77.9621 37.3518 77.7315 37.7529C77.4709 38.2065 77.0951 38.5827 76.6436 38.8467L76.6446 38.8477L76.4942 38.9375L76.4815 38.9453C76.2523 39.0781 76.0851 39.2968 76.0167 39.5527C75.9486 39.8079 75.9838 40.0796 76.1153 40.3086L76.3341 40.6885C76.4668 40.9177 76.6866 41.0849 76.9425 41.1533C77.1984 41.2217 77.4708 41.186 77.7003 41.0537L77.7296 41.0381L77.8497 40.9736L78.0235 40.8809C78.4352 40.6779 78.889 40.5723 79.3497 40.5723C79.8103 40.5723 80.2643 40.6781 80.6759 40.8809L80.8497 40.9736L80.8526 40.9756L81.2794 41.2236C81.7348 41.4866 82.1138 41.8651 82.377 42.3203C82.6403 42.7758 82.7798 43.2932 82.7803 43.8193V44C82.7803 44.2652 82.8858 44.5195 83.0733 44.707C83.2608 44.8945 83.5152 45 83.7803 45H84.2198C84.4849 45 84.7393 44.8945 84.9268 44.707C85.1144 44.5195 85.2198 44.2652 85.2198 44V43.8193L85.2266 43.6221C85.2572 43.1646 85.3928 42.7188 85.6231 42.3203C85.8534 41.922 86.1718 41.5829 86.5528 41.3281L86.7198 41.2236L87.1475 40.9756L87.1505 40.9736L87.3243 40.8809C87.7359 40.6781 88.1898 40.5723 88.6505 40.5723C89.1769 40.5723 89.6945 40.7104 90.1505 40.9736L90.2999 41.0537C90.5293 41.186 90.8018 41.2217 91.0577 41.1533C91.3136 41.0849 91.5323 40.9177 91.6651 40.6885L91.879 40.3086L91.8839 40.3008L91.9288 40.2119C92.0233 40.0026 92.0433 39.7658 91.9835 39.542C91.915 39.2862 91.7477 39.0683 91.5186 38.9355L91.3995 38.8721C91.3897 38.8669 91.3798 38.862 91.3702 38.8564C90.9124 38.5921 90.532 38.2113 90.2686 37.7529C90.0052 37.2946 89.8681 36.7747 89.8702 36.2461V35.75C89.8688 35.2228 90.0059 34.7042 90.2686 34.2471C90.5292 33.7936 90.9042 33.4163 91.3555 33.1523L91.5059 33.0625L91.5186 33.0547L91.6016 33.001C91.7882 32.8667 91.9236 32.6713 91.9835 32.4473C92.0516 32.1921 92.0163 31.9204 91.8848 31.6914L91.6651 31.3106C91.5323 31.0813 91.3136 30.9151 91.0577 30.8467C90.8337 30.7868 90.5972 30.8067 90.3878 30.9014L90.2999 30.9463C90.2903 30.9518 90.2803 30.9567 90.2706 30.9619L90.1495 31.0254L90.1505 31.0264C89.6945 31.2896 89.1769 31.4277 88.6505 31.4277C88.124 31.4277 87.6064 31.2895 87.1505 31.0264L87.1475 31.0244L86.7198 30.7754C86.2644 30.5124 85.8864 30.1349 85.6231 29.6797C85.3598 29.2242 85.2203 28.7067 85.2198 28.1807V28ZM87.2198 28.1787L87.2286 28.3096C87.2458 28.4391 87.2887 28.5648 87.3546 28.6787C87.4204 28.7926 87.5077 28.8922 87.6114 28.9717L87.7227 29.0459L88.1495 29.294C88.3014 29.3816 88.475 29.4277 88.6505 29.4277C88.8259 29.4277 88.9986 29.3817 89.1505 29.294L89.1798 29.2773L89.3292 29.1973C90.0116 28.8135 90.8171 28.7116 91.5743 28.9141C92.246 29.0937 92.8317 29.5001 93.2344 30.0596L93.3956 30.3086L93.6153 30.6894L93.6163 30.6904L93.752 30.9541C94.0358 31.5821 94.0956 32.2923 93.9161 32.9639C93.7121 33.7268 93.2144 34.3773 92.5333 34.7764L92.5342 34.7773L92.3702 34.876C92.2176 34.9641 92.0908 35.0914 92.003 35.2441C91.9153 35.3968 91.8695 35.57 91.8702 35.7461V36.2539C91.8695 36.43 91.9153 36.6032 92.003 36.7559C92.0894 36.9063 92.2139 37.0312 92.3634 37.1191L92.4903 37.1875L92.5216 37.2051L92.7706 37.3662C93.3298 37.7689 93.7365 38.3539 93.9161 39.0254C94.1205 39.7898 94.0131 40.6035 93.6202 41.29L93.6212 41.291L93.4014 41.6816L93.3956 41.6914C92.9972 42.3791 92.342 42.8806 91.5743 43.0859C90.817 43.2884 90.0116 43.1848 89.3292 42.8008V42.8027L89.1798 42.7227C89.17 42.7174 89.1601 42.7116 89.1505 42.7061C88.9986 42.6184 88.8259 42.5723 88.6505 42.5723C88.475 42.5723 88.3024 42.6184 88.1505 42.7061L88.1495 42.7051L87.7227 42.9541L87.6114 43.0283C87.5077 43.1079 87.4204 43.2074 87.3546 43.3213C87.2668 43.4731 87.22 43.6459 87.2198 43.8213V44C87.2198 44.7955 86.9043 45.5585 86.3419 46.1211C85.7793 46.6837 85.0154 47 84.2198 47H83.7803C82.9847 47 82.2209 46.6837 81.6583 46.1211C81.0959 45.5585 80.7804 44.7955 80.7804 44V43.8213L80.7716 43.6904C80.7544 43.5609 80.7114 43.4352 80.6456 43.3213C80.5797 43.2074 80.4925 43.1079 80.3888 43.0283L80.2774 42.9541L79.8497 42.7051C79.6978 42.6174 79.5251 42.5723 79.3497 42.5723C79.2182 42.5723 79.0886 42.5985 78.9679 42.6484L78.8497 42.7061C78.8401 42.7116 78.8302 42.7174 78.8204 42.7227L78.671 42.8027L78.67 42.8008C77.9877 43.1844 77.1829 43.2883 76.4259 43.0859C75.7541 42.9063 75.1684 42.4999 74.7657 41.9404L74.6046 41.6914L74.3849 41.3105L74.3839 41.3096C73.9869 40.6213 73.879 39.8037 74.0841 39.0361C74.2881 38.2733 74.785 37.6217 75.4659 37.2227L75.63 37.124L75.7394 37.0508C75.8435 36.9708 75.9313 36.8705 75.9972 36.7559C76.0849 36.6032 76.1307 36.43 76.13 36.2539V35.7461L76.1212 35.6162C76.1035 35.4873 76.0601 35.3622 75.9942 35.249C75.9284 35.136 75.8416 35.037 75.7384 34.958L75.63 34.8857L75.5753 34.8516L75.4259 34.752C74.7661 34.351 74.2839 33.7113 74.0841 32.9639C73.879 32.1963 73.9869 31.3787 74.3839 30.6904L74.3849 30.6885L74.6046 30.3086L74.7657 30.0596C75.1684 29.5001 75.7541 29.0937 76.4259 28.9141C77.1828 28.7117 77.9878 28.8148 78.67 29.1982L78.671 29.1973L78.8204 29.2773L78.8497 29.294L78.9679 29.3516C79.0886 29.4015 79.2182 29.4277 79.3497 29.4277C79.4814 29.4277 79.6116 29.4016 79.7325 29.3516L79.8497 29.294L80.2774 29.0459L80.3888 28.9717C80.4925 28.8922 80.5797 28.7926 80.6456 28.6787C80.7332 28.5271 80.7801 28.3548 80.7804 28.1797V28C80.7804 27.2045 81.0959 26.4415 81.6583 25.8789C82.2209 25.3163 82.9847 25 83.7803 25H84.2198C85.0154 25 85.7793 25.3163 86.3419 25.8789C86.9043 26.4415 87.2198 27.2045 87.2198 28V28.1787Z" fill="#1A73E8"/>
<path d="M86 36C86 34.8954 85.1046 34 84 34C82.8954 34 82 34.8954 82 36C82 37.1046 82.8954 38 84 38C85.1046 38 86 37.1046 86 36ZM88 36C88 38.2091 86.2091 40 84 40C81.7909 40 80 38.2091 80 36C80 33.7909 81.7909 32 84 32C86.2091 32 88 33.7909 88 36Z" fill="#1A73E8"/>
<path d="M60 1.00208C60.5249 1.00208 61.0401 1.14078 61.4951 1.40247L61.4961 1.40149L68.4961 5.40149L68.5 5.40442L68.667 5.50793C69.0483 5.76279 69.3673 6.10252 69.5977 6.5011C69.8608 6.95647 69.9995 7.47322 70 7.99915V16.0011C69.9995 16.5271 69.8608 17.0438 69.5977 17.4991C69.3344 17.9546 68.9556 18.3328 68.5 18.5958L68.4961 18.5988L61.4961 22.5988L61.4951 22.5978C61.0401 22.8594 60.5249 22.9982 60 22.9982C59.4748 22.9982 58.9591 22.8597 58.5039 22.5978V22.5988L51.5039 18.5988L51.5 18.5958C51.0444 18.3328 50.6656 17.9546 50.4023 17.4991C50.172 17.1006 50.0373 16.655 50.0068 16.1974L50 16.0011L50 7.99915L50.0068 7.80188C50.0374 7.34461 50.1722 6.89942 50.4023 6.5011C50.6656 6.04569 51.0445 5.66746 51.5 5.40442L51.5039 5.40149L58.5039 1.40149C58.9591 1.13953 59.4748 1.00208 60 1.00208ZM60 3.00208C59.8245 3.00208 59.652 3.04813 59.5 3.13586L59.4961 3.13782L52.499 7.13489L52.5 7.13586C52.3481 7.22355 52.2216 7.35025 52.1338 7.50208C52.0462 7.65377 52.0002 7.82593 52 8.00109L52 15.9991L52.0088 16.13C52.026 16.2593 52.0682 16.3845 52.1338 16.4982C52.2208 16.6486 52.346 16.7739 52.4961 16.8615L59.4961 20.8615L59.5 20.8644L59.6172 20.922C59.7381 20.9721 59.8682 20.9982 60 20.9982C60.1755 20.9982 60.348 20.9521 60.5 20.8644L60.5039 20.8615L67.5039 16.8615C67.654 16.7739 67.7792 16.6486 67.8662 16.4982C67.9536 16.3468 67.9996 16.175 68 16.0001V8.00109L67.9912 7.87024C67.974 7.74095 67.9318 7.61576 67.8662 7.50208C67.7785 7.35025 67.6519 7.22355 67.5 7.13586L60.5039 3.13782L60.5 3.13586C60.348 3.04813 60.1755 3.00208 60 3.00208Z" fill="#565D6D"/>
<path d="M59 22V12C59 11.4477 59.4477 11 60 11C60.5523 11 61 11.4477 61 12V22C61 22.5523 60.5523 23 60 23C59.4477 23 59 22.5523 59 22Z" fill="#565D6D"/>
<path d="M68.212 6.13276C68.6909 5.85785 69.3022 6.02309 69.5772 6.5019C69.8521 6.98084 69.6869 7.59215 69.2081 7.86714L60.4981 12.8671C60.2284 13.0219 59.9044 13.0417 59.6211 12.9257L59.502 12.8671L50.7921 7.86714L50.7061 7.81147C50.2945 7.51598 50.1652 6.95087 50.4229 6.5019C50.6807 6.05314 51.2337 5.87959 51.6964 6.08589L51.7882 6.13276L60 10.8466L68.212 6.13276Z" fill="#565D6D"/>
<path d="M54.6317 3.77289C54.8889 3.32365 55.4421 3.14993 55.9051 3.3559L55.9969 3.4018L64.9969 8.55219L65.0829 8.60687C65.4951 8.9017 65.625 9.46706 65.368 9.91644C65.1109 10.3658 64.5577 10.5403 64.0946 10.3344L64.0028 10.2875L55.0028 5.13812L54.9168 5.08246C54.5047 4.78753 54.3746 4.22221 54.6317 3.77289Z" fill="#565D6D"/>
<path d="M60 25.0021C60.5249 25.0021 61.0401 25.1408 61.4951 25.4025L61.4961 25.4015L68.4961 29.4015L68.5 29.4044L68.667 29.5079C69.0483 29.7628 69.3673 30.1025 69.5977 30.5011C69.8608 30.9565 69.9995 31.4732 70 31.9991V40.0011C69.9995 40.5271 69.8608 41.0438 69.5977 41.4991C69.3344 41.9546 68.9556 42.3328 68.5 42.5958L68.4961 42.5988L61.4961 46.5988L61.4951 46.5978C61.0401 46.8594 60.5249 46.9982 60 46.9982C59.4748 46.9982 58.9591 46.8597 58.5039 46.5978V46.5988L51.5039 42.5988L51.5 42.5958C51.0444 42.3328 50.6656 41.9546 50.4023 41.4991C50.172 41.1006 50.0373 40.655 50.0068 40.1974L50 40.0011L50 31.9991L50.0068 31.8019C50.0374 31.3446 50.1722 30.8994 50.4023 30.5011C50.6656 30.0457 51.0445 29.6675 51.5 29.4044L51.5039 29.4015L58.5039 25.4015C58.9591 25.1395 59.4748 25.0021 60 25.0021ZM60 27.0021C59.8245 27.0021 59.652 27.0481 59.5 27.1359L59.4961 27.1378L52.499 31.1349L52.5 31.1359C52.3481 31.2235 52.2216 31.3502 52.1338 31.5021C52.0462 31.6538 52.0002 31.8259 52 32.0011L52 39.9991L52.0088 40.13C52.026 40.2593 52.0682 40.3845 52.1338 40.4982C52.2208 40.6486 52.346 40.7739 52.4961 40.8615L59.4961 44.8615L59.5 44.8644L59.6172 44.922C59.7381 44.9721 59.8682 44.9982 60 44.9982C60.1755 44.9982 60.348 44.9521 60.5 44.8644L60.5039 44.8615L67.5039 40.8615C67.654 40.7739 67.7792 40.6486 67.8662 40.4982C67.9536 40.3468 67.9996 40.175 68 40.0001V32.0011L67.9912 31.8702C67.974 31.7409 67.9318 31.6158 67.8662 31.5021C67.7785 31.3502 67.6519 31.2235 67.5 31.1359L60.5039 27.1378L60.5 27.1359C60.348 27.0481 60.1755 27.0021 60 27.0021Z" fill="#1A73E8"/>
<path d="M59 46V36C59 35.4477 59.4477 35 60 35C60.5523 35 61 35.4477 61 36V46C61 46.5523 60.5523 47 60 47C59.4477 47 59 46.5523 59 46Z" fill="#1A73E8"/>
<path d="M68.212 30.1328C68.6909 29.8578 69.3022 30.0231 69.5772 30.5019C69.8521 30.9808 69.6869 31.5921 69.2081 31.8671L60.4981 36.8671C60.2284 37.0219 59.9044 37.0417 59.6211 36.9257L59.502 36.8671L50.7921 31.8671L50.7061 31.8115C50.2945 31.516 50.1652 30.9509 50.4229 30.5019C50.6807 30.0531 51.2337 29.8796 51.6964 30.0859L51.7882 30.1328L60 34.8466L68.212 30.1328Z" fill="#1A73E8"/>
<path d="M54.6317 27.7729C54.8889 27.3237 55.4421 27.1499 55.9051 27.3559L55.9969 27.4018L64.9969 32.5522L65.0829 32.6069C65.4951 32.9017 65.625 33.4671 65.368 33.9164C65.1109 34.3658 64.5577 34.5403 64.0946 34.3344L64.0028 34.2875L55.0028 29.1381L54.9168 29.0825C54.5047 28.7875 54.3746 28.2222 54.6317 27.7729Z" fill="#1A73E8"/>
<path d="M39 11C39.5523 11 40 11.4477 40 12C40 12.5523 39.5523 13 39 13L34 13C33.4477 13 33 12.5523 33 12C33 11.4477 33.4477 11 34 11L39 11Z" fill="#565D6D"/>
<path d="M39 7C39.5523 7 40 7.44772 40 8C40 8.55228 39.5523 9 39 9L34 9C33.4477 9 33 8.55228 33 8C33 7.44772 33.4477 7 34 7L39 7Z" fill="#565D6D"/>
<path d="M42 17V5C42 4.73478 41.8946 4.48051 41.707 4.29297C41.5195 4.10543 41.2652 4 41 4L28 4C27.4477 4 27 3.55228 27 3C27 2.44772 27.4477 2 28 2L41 2C41.7956 2 42.5585 2.3163 43.1211 2.87891C43.6837 3.44152 44 4.20435 44 5V17C44 17.5523 43.5523 18 43 18C42.4477 18 42 17.5523 42 17Z" fill="#565D6D"/>
<path d="M35 18V19C35 19.3444 34.937 19.6814 34.8242 20H44C44.2652 20 44.5195 19.8946 44.707 19.707C44.8946 19.5195 45 19.2652 45 19V18H35ZM28.9951 4.90137C28.9724 4.67237 28.8712 4.45711 28.707 4.29297C28.5429 4.12883 28.3276 4.02757 28.0986 4.00488L28 4C27.7348 4 27.4805 4.10543 27.293 4.29297C27.1054 4.48051 27 4.73478 27 5V7H29V5L28.9951 4.90137ZM31 19L31.0049 19.0986C31.0276 19.3276 31.1288 19.5429 31.293 19.707C31.4805 19.8946 31.7348 20 32 20C32.2652 20 32.5195 19.8946 32.707 19.707C32.8946 19.5195 33 19.2652 33 19L33 18C33 17.4696 33.2109 16.961 33.5859 16.5859C33.961 16.2109 34.4696 16 35 16L45 16C45.5304 16 46.039 16.2109 46.4141 16.5859C46.7891 16.961 47 17.4696 47 18V19C47 19.7957 46.6837 20.5585 46.1211 21.1211C45.5585 21.6837 44.7957 22 44 22L32 22C31.2043 22 30.4415 21.6837 29.8789 21.1211C29.3163 20.5585 29 19.7956 29 19L29 9H27C26.4696 9 25.961 8.78913 25.5859 8.41406C25.2577 8.08578 25.0552 7.65526 25.0098 7.19727L25 7V5C25 4.20435 25.3163 3.44152 25.8789 2.87891C26.4415 2.3163 27.2043 2 28 2L28.2969 2.01465C28.9835 2.08291 29.6289 2.38671 30.1211 2.87891C30.6837 3.44152 31 4.20435 31 5L31 19Z" fill="#565D6D"/>
<path d="M39 35C39.5523 35 40 35.4477 40 36C40 36.5523 39.5523 37 39 37H34C33.4477 37 33 36.5523 33 36C33 35.4477 33.4477 35 34 35H39Z" fill="#1A73E8"/>
<path d="M39 31C39.5523 31 40 31.4477 40 32C40 32.5523 39.5523 33 39 33H34C33.4477 33 33 32.5523 33 32C33 31.4477 33.4477 31 34 31H39Z" fill="#1A73E8"/>
<path d="M42 41V29C42 28.7348 41.8946 28.4805 41.707 28.293C41.5195 28.1054 41.2652 28 41 28L28 28C27.4477 28 27 27.5523 27 27C27 26.4477 27.4477 26 28 26L41 26C41.7956 26 42.5585 26.3163 43.1211 26.8789C43.6837 27.4415 44 28.2043 44 29V41C44 41.5523 43.5523 42 43 42C42.4477 42 42 41.5523 42 41Z" fill="#1A73E8"/>
<path d="M35 42V43C35 43.3444 34.937 43.6814 34.8242 44H44C44.2652 44 44.5195 43.8946 44.707 43.707C44.8946 43.5195 45 43.2652 45 43V42H35ZM28.9951 28.9014C28.9724 28.6724 28.8712 28.4571 28.707 28.293C28.5429 28.1288 28.3276 28.0276 28.0986 28.0049L28 28C27.7348 28 27.4805 28.1054 27.293 28.293C27.1054 28.4805 27 28.7348 27 29V31H29V29L28.9951 28.9014ZM31 43L31.0049 43.0986C31.0276 43.3276 31.1288 43.5429 31.293 43.707C31.4805 43.8946 31.7348 44 32 44C32.2652 44 32.5195 43.8946 32.707 43.707C32.8946 43.5195 33 43.2652 33 43L33 42C33 41.4696 33.2109 40.961 33.5859 40.5859C33.961 40.2109 34.4696 40 35 40L45 40C45.5304 40 46.039 40.2109 46.4141 40.5859C46.7891 40.961 47 41.4696 47 42V43C47 43.7957 46.6837 44.5585 46.1211 45.1211C45.5585 45.6837 44.7957 46 44 46H32C31.2043 46 30.4415 45.6837 29.8789 45.1211C29.3163 44.5585 29 43.7956 29 43L29 33H27C26.4696 33 25.961 32.7891 25.5859 32.4141C25.2577 32.0858 25.0552 31.6553 25.0098 31.1973L25 31V29C25 28.2043 25.3163 27.4415 25.8789 26.8789C26.4415 26.3163 27.2043 26 28 26L28.2969 26.0147C28.9835 26.0829 29.6289 26.3867 30.1211 26.8789C30.6837 27.4415 31 28.2043 31 29L31 43Z" fill="#1A73E8"/>
<path d="M4 4L4 11L9 11L9 4L4 4ZM11 11C11 12.1046 10.1046 13 9 13L4 13C2.89543 13 2 12.1046 2 11L2 4C2 2.89543 2.89543 2 4 2L9 2C10.1046 2 11 2.89543 11 4L11 11Z" fill="#565D6D"/>
<path d="M15 4L15 7L20 7V4L15 4ZM22 7C22 8.10457 21.1046 9 20 9L15 9C13.8954 9 13 8.10457 13 7L13 4C13 2.89543 13.8954 2 15 2L20 2C21.1046 2 22 2.89543 22 4V7Z" fill="#565D6D"/>
<path d="M15 13L15 20H20V13L15 13ZM22 20C22 21.1046 21.1046 22 20 22H15C13.8954 22 13 21.1046 13 20L13 13C13 11.8954 13.8954 11 15 11L20 11C21.1046 11 22 11.8954 22 13V20Z" fill="#565D6D"/>
<path d="M4 17L4 20H9V17H4ZM11 20C11 21.1046 10.1046 22 9 22H4C2.89543 22 2 21.1046 2 20L2 17C2 15.8954 2.89543 15 4 15L9 15C10.1046 15 11 15.8954 11 17L11 20Z" fill="#565D6D"/>
<path d="M4 28L4 35H9L9 28H4ZM11 35C11 36.1046 10.1046 37 9 37H4C2.89543 37 2 36.1046 2 35L2 28C2 26.8954 2.89543 26 4 26H9C10.1046 26 11 26.8954 11 28L11 35Z" fill="#1A73E8"/>
<path d="M15 28L15 31H20V28H15ZM22 31C22 32.1046 21.1046 33 20 33H15C13.8954 33 13 32.1046 13 31L13 28C13 26.8954 13.8954 26 15 26H20C21.1046 26 22 26.8954 22 28V31Z" fill="#1A73E8"/>
<path d="M15 37L15 44H20V37H15ZM22 44C22 45.1046 21.1046 46 20 46H15C13.8954 46 13 45.1046 13 44L13 37C13 35.8954 13.8954 35 15 35H20C21.1046 35 22 35.8954 22 37V44Z" fill="#1A73E8"/>
<path d="M4 41L4 44H9V41H4ZM11 44C11 45.1046 10.1046 46 9 46H4C2.89543 46 2 45.1046 2 44L2 41C2 39.8954 2.89543 39 4 39H9C10.1046 39 11 39.8954 11 41L11 44Z" fill="#1A73E8"/>
</svg>
