<svg width="12" height="12" viewBox="0 0 12 12" fill="none" xmlns="http://www.w3.org/2000/svg">
<g clip-path="url(#clip0_66_84)">
<path d="M6 0.501099C6.26245 0.501099 6.52005 0.570449 6.74755 0.701294L6.74805 0.700804L10.248 2.7008L10.25 2.70227L10.3335 2.75402C10.5241 2.88145 10.6837 3.05132 10.7989 3.25061C10.9304 3.47829 10.9997 3.73667 11 3.99963L11 8.00061C10.9997 8.26361 10.9304 8.52196 10.7989 8.74961C10.6672 8.97736 10.4778 9.16646 10.25 9.29796L10.248 9.29946L6.74805 11.2995L6.74755 11.299C6.52005 11.4298 6.26245 11.4992 6 11.4992C5.7374 11.4992 5.47955 11.4299 5.25195 11.299V11.2995L1.75196 9.29946L1.75 9.29796C1.52222 9.16646 1.3328 8.97736 1.20117 8.74961C1.086 8.55036 1.01866 8.32756 1.00342 8.09876L1 8.00061L1 3.99963L1.00342 3.901C1.01871 3.67236 1.08609 3.44977 1.20117 3.25061C1.33279 3.0229 1.52224 2.83379 1.75 2.70227L1.75196 2.7008L5.25195 0.700804C5.47955 0.569824 5.7374 0.501099 6 0.501099ZM6 1.5011C5.91225 1.5011 5.826 1.52412 5.75 1.56799L5.74805 1.56897L2.24951 3.5675L2.25 3.56799C2.17407 3.61183 2.11078 3.67518 2.0669 3.7511C2.02312 3.82694 2.00009 3.91303 2 4.00061L2 7.99961L2.0044 8.06506C2.01301 8.12971 2.03408 8.19231 2.0669 8.24916C2.11039 8.32436 2.17301 8.38701 2.24804 8.43081L5.74805 10.4308L5.75 10.4323L5.8086 10.4611C5.86905 10.4861 5.9341 10.4992 6 10.4992C6.08775 10.4992 6.174 10.4761 6.25 10.4323L6.25195 10.4308L9.75195 8.43081C9.827 8.38701 9.8896 8.32436 9.9331 8.24916C9.9768 8.17346 9.9998 8.08756 10 8.00011L10 4.00061L9.9956 3.93518C9.987 3.87053 9.9659 3.80794 9.9331 3.7511C9.88925 3.67518 9.82595 3.61183 9.75 3.56799L6.25195 1.56897L6.25 1.56799C6.174 1.52412 6.08775 1.5011 6 1.5011Z" fill="#565D6D"/>
<path d="M5.5 11L5.5 6C5.5 5.72385 5.72385 5.5 6 5.5C6.27615 5.5 6.5 5.72385 6.5 6L6.5 11C6.5 11.2761 6.27615 11.5 6 11.5C5.72385 11.5 5.5 11.2761 5.5 11Z" fill="#565D6D"/>
<path d="M10.106 3.06644C10.3455 2.92899 10.6511 3.01161 10.7886 3.25101C10.9261 3.49048 10.8435 3.79614 10.6041 3.93363L6.24906 6.43361C6.11421 6.51101 5.95221 6.52091 5.81056 6.46291L5.75101 6.43361L1.39603 3.93363L1.35306 3.9058C1.14723 3.75805 1.0826 3.4755 1.21146 3.25101C1.34033 3.02663 1.61685 2.93986 1.84818 3.04301L1.89408 3.06644L6.00001 5.42336L10.106 3.06644Z" fill="#565D6D"/>
<path d="M3.31608 1.8815C3.44468 1.65688 3.72128 1.57002 3.9528 1.67301L3.99869 1.69596L8.49868 4.27115L8.54168 4.29849C8.74778 4.44591 8.81273 4.72859 8.68423 4.95328C8.55568 5.17796 8.27908 5.26521 8.04753 5.16226L8.00163 5.13881L3.50162 2.56412L3.45866 2.53629C3.25262 2.38882 3.18752 2.10616 3.31608 1.8815Z" fill="#565D6D"/>
</g>
<defs>
<clipPath id="clip0_66_84">
<rect width="12" height="12" fill="white"/>
</clipPath>
</defs>
</svg>
