<svg width="38" height="12" viewBox="0 0 38 12" fill="none" xmlns="http://www.w3.org/2000/svg">
<g clip-path="url(#clip0_82_678)">
<path d="M23.5 6C23.5 3.51472 21.4853 1.5 19 1.5C16.5147 1.5 14.5 3.51472 14.5 6C14.5 8.4853 16.5147 10.5 19 10.5C21.4853 10.5 23.5 8.4853 23.5 6ZM24.5 6C24.5 9.03755 22.0375 11.5 19 11.5C15.9624 11.5 13.5 9.03755 13.5 6C13.5 2.96244 15.9624 0.5 19 0.5C22.0375 0.5 24.5 2.96244 24.5 6Z" fill="#15803D"/>
<path d="M20.1845 4.61231C20.3808 4.45213 20.6703 4.46343 20.8534 4.64649C21.0365 4.82955 21.0478 5.11905 20.8876 5.31545L20.8534 5.3535L18.8534 7.3535C18.6703 7.5366 18.3808 7.5479 18.1845 7.3877L18.1464 7.3535L17.1464 6.3535L17.1122 6.31545C16.952 6.11905 16.9633 5.82955 17.1464 5.6465C17.3294 5.46345 17.6189 5.45215 17.8153 5.6123L17.8534 5.6465L18.4999 6.29295L20.1464 4.64649L20.1845 4.61231Z" fill="#15803D"/>
</g>
<path d="M33.1465 5.6465C33.3417 5.45125 33.6582 5.4513 33.8535 5.6465C34.0488 5.84175 34.0488 6.15825 33.8535 6.3535L29.667 10.54C29.3926 10.8143 29.0268 10.9759 28.6411 10.9951L28.5635 10.9971C28.1496 10.997 27.7526 10.8327 27.46 10.54C27.1673 10.2474 27.0029 9.8504 27.0029 9.43655C27.0029 9.02265 27.1673 8.6257 27.46 8.333L31.6465 4.1465L31.6846 4.11232C31.8809 3.95211 32.1704 3.96346 32.3535 4.1465C32.5365 4.32949 32.5482 4.61906 32.3882 4.81544L32.3535 4.85353L28.167 9.04005C28.0619 9.1452 28.0029 9.28785 28.0029 9.43655C28.0029 9.5852 28.0619 9.7279 28.167 9.833C28.2721 9.93815 28.4148 9.99705 28.5635 9.9971L28.6191 9.99465C28.7474 9.9819 28.868 9.92495 28.96 9.833L33.1465 5.6465Z" fill="#1D4ED8"/>
<path d="M36.6845 5.1123C36.8809 4.95214 37.1704 4.96343 37.3535 5.1465C37.5365 5.32955 37.5478 5.61905 37.3877 5.81545L37.3535 5.8535L35.3535 7.8535C35.1582 8.0488 34.8417 8.0488 34.6465 7.8535C34.4512 7.65825 34.4512 7.34175 34.6465 7.1465L36.6465 5.1465L36.6845 5.1123Z" fill="#1D4ED8"/>
<path d="M34.9952 4.08095V3.70204L34.0118 2.71864C33.5761 2.28319 32.9961 2.02477 32.3839 1.99061L32.2609 1.9872L31.7301 1.98329C31.9082 2.21053 32.0596 2.45834 32.1788 2.72304C32.3871 3.18564 32.4949 3.68739 32.4952 4.19472V4.78798L33.2023 5.495H33.5812L33.7296 5.50235C34.0729 5.5365 34.3956 5.68835 34.6417 5.93445L35.5987 6.8915L35.6329 6.9296C35.7931 7.12595 35.7818 7.41545 35.5987 7.59855C35.4157 7.78155 35.1262 7.79285 34.9298 7.6327L34.8917 7.59855L33.9347 6.6415C33.8526 6.55945 33.745 6.50885 33.6305 6.49745L33.5812 6.495H32.9952C32.8626 6.495 32.7355 6.4423 32.6417 6.34855L31.6417 5.34855C31.5479 5.25475 31.4952 5.1276 31.4952 4.995V4.1952C31.495 3.82924 31.417 3.46739 31.2667 3.13368C31.1165 2.80004 30.8974 2.50193 30.6236 2.25917L30.6227 2.25819L30.1627 1.84804C30.0074 1.70958 29.9537 1.4895 30.0284 1.2953C30.1032 1.10112 30.2906 0.973577 30.4986 0.974987L32.2677 0.987197L32.4396 0.992567C33.2966 1.04037 34.1089 1.40149 34.7189 2.01112L35.8487 3.14149L35.8819 3.17811C35.9549 3.26709 35.9952 3.37897 35.9952 3.49501V4.08095L35.9977 4.13026C36.0091 4.24473 36.0597 4.35243 36.1417 4.43446L37.0987 5.3915L37.1329 5.4296C37.2931 5.62595 37.2818 5.91545 37.0987 6.09855C36.9157 6.28155 36.6262 6.29285 36.4298 6.1327L36.3917 6.09855L35.4347 5.1415C35.1886 4.89543 35.0367 4.57268 35.0026 4.22938L34.9952 4.08095Z" fill="#1D4ED8"/>
<g clip-path="url(#clip1_82_678)">
<path d="M10.5 6C10.5 3.51472 8.4853 1.5 6 1.5C3.51472 1.5 1.5 3.51472 1.5 6C1.5 8.4853 3.51472 10.5 6 10.5C8.4853 10.5 10.5 8.4853 10.5 6ZM11.5 6C11.5 9.03755 9.03755 11.5 6 11.5C2.96244 11.5 0.5 9.03755 0.5 6C0.5 2.96244 2.96244 0.5 6 0.5C9.03755 0.5 11.5 2.96244 11.5 6Z" fill="#A16207"/>
<path d="M5.5 3C5.5 2.72386 5.72385 2.5 6 2.5C6.27615 2.5 6.5 2.72386 6.5 3L6.5 5.6909L8.22365 6.55275L8.26805 6.5781C8.48215 6.7138 8.56305 6.9921 8.44725 7.22365C8.3315 7.4552 8.0602 7.55765 7.82325 7.46775L7.77635 7.44725L5.77635 6.44725C5.607 6.36255 5.5 6.1894 5.5 6L5.5 3Z" fill="#A16207"/>
</g>
<defs>
<clipPath id="clip0_82_678">
<rect width="12" height="12" fill="white" transform="translate(13)"/>
</clipPath>
<clipPath id="clip1_82_678">
<rect width="12" height="12" fill="white"/>
</clipPath>
</defs>
</svg>
