<svg width="22" height="22" viewBox="0 0 22 22" fill="none" xmlns="http://www.w3.org/2000/svg">
<path d="M12.1221 3.64C12.1221 3.396 12.0251 3.16207 11.8525 2.98954C11.68 2.81708 11.446 2.72 11.2021 2.72H10.7978C10.5539 2.72 10.3198 2.81708 10.1473 2.98954C9.97482 3.16207 9.87776 3.396 9.87776 3.64V3.80621C9.8773 4.29021 9.74896 4.76629 9.50673 5.18532C9.26458 5.60415 8.9168 5.95234 8.4978 6.19427L8.49691 6.19336L8.10429 6.42246L8.10159 6.42427C7.68212 6.66635 7.20592 6.79352 6.72159 6.79352C6.23723 6.79346 5.76106 6.66645 5.34159 6.42427L5.23108 6.36496L5.20414 6.35059C4.99303 6.22884 4.74237 6.196 4.50694 6.25895C4.30081 6.31408 4.12103 6.4385 3.99753 6.61024L3.94811 6.6866L3.74596 7.0361C3.62498 7.24679 3.59253 7.49672 3.65522 7.73149C3.71032 7.93756 3.83486 8.11741 4.00652 8.24091L4.08289 8.29032L4.1323 8.32086L4.26976 8.41251C4.66459 8.65169 4.99335 8.98499 5.22569 9.38458C5.46779 9.80106 5.59653 10.2739 5.59944 10.7557V11.2264L5.59405 11.4079C5.56785 11.8311 5.44496 12.2437 5.23289 12.6127C4.99305 13.03 4.64737 13.3761 4.23202 13.619L4.23292 13.6199L4.09456 13.7025L4.08289 13.7097C3.87198 13.8319 3.71818 14.0331 3.65522 14.2685C3.59253 14.5033 3.62498 14.7532 3.74596 14.9639L3.94721 15.3134C4.06936 15.5243 4.27151 15.6781 4.50694 15.741C4.74237 15.804 4.99303 15.7711 5.20414 15.6494L5.23108 15.6351L5.34159 15.5757L5.50152 15.4904C5.88025 15.3037 6.29773 15.2065 6.72159 15.2065C7.14536 15.2065 7.56298 15.3039 7.94167 15.4904L8.10159 15.5757L8.10429 15.5776L8.49691 15.8057C8.91589 16.0477 9.26458 16.3959 9.50673 16.8147C9.74896 17.2337 9.8773 17.7097 9.87776 18.1938V18.36C9.87776 18.604 9.97482 18.8379 10.1473 19.0104C10.3198 19.1829 10.5539 19.28 10.7978 19.28H11.2021C11.446 19.28 11.68 19.1829 11.8525 19.0104C12.0251 18.8379 12.1221 18.604 12.1221 18.36V18.1938L12.1284 18.0123C12.1565 17.5914 12.2813 17.1813 12.4931 16.8147C12.705 16.4482 12.9979 16.1363 13.3485 15.9019L13.5021 15.8057L13.8956 15.5776L13.8983 15.5757L14.0582 15.4904C14.4369 15.3039 14.8545 15.2065 15.2783 15.2065C15.7626 15.2065 16.2388 15.3336 16.6583 15.5757L16.7958 15.6494C17.0068 15.7711 17.2575 15.804 17.493 15.741C17.7284 15.6781 17.9296 15.5243 18.0518 15.3134L18.2486 14.9639L18.2531 14.9567L18.2944 14.875C18.3813 14.6824 18.3997 14.4645 18.3447 14.2586C18.2817 14.0233 18.1278 13.8228 17.917 13.7007L17.8074 13.6423C17.7984 13.6376 17.7893 13.633 17.7805 13.6279C17.3593 13.3847 17.0093 13.0344 16.767 12.6127C16.5247 12.191 16.3985 11.7127 16.4005 11.2264V10.77C16.3992 10.285 16.5253 9.80787 16.767 9.38734C17.0068 8.97011 17.3518 8.62299 17.7669 8.38016L17.9053 8.2975L17.917 8.29032L17.9934 8.24091C18.165 8.11741 18.2896 7.93756 18.3447 7.73149C18.4074 7.49672 18.3749 7.24679 18.2539 7.0361L18.0518 6.68571C17.9296 6.47482 17.7284 6.32192 17.493 6.25895C17.2869 6.20386 17.0693 6.22221 16.8767 6.30927L16.7958 6.35059C16.787 6.35567 16.7778 6.36019 16.7688 6.36496L16.6574 6.42336L16.6583 6.42427C16.2388 6.66645 15.7626 6.79346 15.2783 6.79352C14.794 6.79352 14.3178 6.66635 13.8983 6.42427L13.8956 6.42246L13.5021 6.19336C13.0831 5.95145 12.7354 5.60415 12.4931 5.18532C12.2509 4.76629 12.1226 4.29021 12.1221 3.80621V3.64ZM13.9621 3.80442L13.9702 3.92481C13.986 4.04401 14.0255 4.15964 14.0861 4.26442C14.1467 4.36916 14.227 4.46078 14.3224 4.53395L14.4248 4.60223L14.8174 4.83044C14.9572 4.91109 15.1169 4.95352 15.2783 4.95352C15.4397 4.95346 15.5986 4.91112 15.7383 4.83044L15.7653 4.81516L15.9028 4.74149C16.5306 4.3884 17.2716 4.29471 17.9682 4.48094C18.5862 4.6462 19.1251 5.02011 19.4955 5.53481L19.6438 5.76391L19.846 6.1143L19.8469 6.1152L19.9717 6.35778C20.2328 6.93557 20.2878 7.58888 20.1227 8.20677C19.935 8.90869 19.4771 9.50712 18.8505 9.87429L18.8514 9.87512L18.7005 9.96593C18.5601 10.047 18.4434 10.1641 18.3626 10.3046C18.282 10.4451 18.2398 10.6044 18.2405 10.7664V11.2336C18.2398 11.3956 18.282 11.5549 18.3626 11.6954C18.4421 11.8338 18.5567 11.9487 18.6942 12.0296L18.811 12.0925L18.8398 12.1087L19.0688 12.2569C19.5833 12.6274 19.9575 13.1656 20.1227 13.7834C20.3107 14.4866 20.2119 15.2352 19.8505 15.8668L19.8514 15.8677L19.6492 16.2271L19.6438 16.2361C19.2773 16.8688 18.6745 17.3302 17.9682 17.519C17.2715 17.7053 16.5306 17.61 15.9028 17.2567V17.2585L15.7653 17.1849C15.7563 17.18 15.7472 17.1747 15.7383 17.1696C15.5986 17.0889 15.4397 17.0465 15.2783 17.0465C15.1169 17.0465 14.9581 17.0889 14.8183 17.1696L14.8174 17.1687L14.4248 17.3978L14.3224 17.466C14.227 17.5393 14.1467 17.6308 14.0861 17.7356C14.0053 17.8753 13.9623 18.0342 13.9621 18.1956V18.36C13.9621 19.0919 13.6718 19.7938 13.1544 20.3114C12.6368 20.829 11.9341 21.12 11.2021 21.12H10.7978C10.0658 21.12 9.36311 20.829 8.84549 20.3114C8.3281 19.7938 8.0378 19.0919 8.0378 18.36V18.1956L8.02971 18.0752C8.01389 17.956 7.97438 17.8404 7.91382 17.7356C7.85322 17.6308 7.77294 17.5393 7.67753 17.466L7.5751 17.3978L7.18159 17.1687C7.0418 17.088 6.88299 17.0465 6.72159 17.0465C6.60061 17.0465 6.48137 17.0706 6.3703 17.1165L6.26159 17.1696C6.25275 17.1747 6.24364 17.18 6.23464 17.1849L6.09718 17.2585L6.09628 17.2567C5.46855 17.6097 4.72815 17.7052 4.03167 17.519C3.41367 17.3538 2.87481 16.9799 2.50432 16.4652L2.35608 16.2361L2.15394 15.8857L2.15304 15.8848C1.78781 15.2516 1.68851 14.4994 1.87721 13.7932C2.06488 13.0914 2.52204 12.492 3.14851 12.1249L3.29944 12.0341L3.40007 11.9667C3.49587 11.8931 3.57666 11.8009 3.63726 11.6954C3.71793 11.5549 3.76008 11.3956 3.75944 11.2336L3.75944 10.7664L3.75135 10.6469C3.7351 10.5283 3.69511 10.4132 3.63456 10.3091C3.57401 10.2051 3.4941 10.114 3.39917 10.0414L3.29944 9.97485L3.24914 9.94348L3.11167 9.85184C2.50467 9.48292 2.06108 8.89437 1.87721 8.20677C1.68851 7.50059 1.78782 6.74838 2.15304 6.1152L2.15394 6.11341L2.35608 5.76391L2.50432 5.53481C2.87481 5.02011 3.41367 4.6462 4.03167 4.48094C4.72802 4.29478 5.46864 4.38961 6.09628 4.74239L6.09718 4.74149L6.23464 4.81516L6.26159 4.83044L6.3703 4.88344C6.48137 4.92941 6.6006 4.95347 6.72159 4.95352C6.84276 4.95352 6.96255 4.9295 7.07378 4.88344L7.18159 4.83044L7.5751 4.60223L7.67753 4.53395C7.77294 4.46078 7.85322 4.36916 7.91382 4.26442C7.99445 4.12493 8.03752 3.96642 8.0378 3.80532V3.64C8.0378 2.90816 8.3281 2.20617 8.84549 1.6886C9.36311 1.171 10.0658 0.880005 10.7978 0.880005L11.2021 0.880005C11.9341 0.880005 12.6368 1.171 13.1544 1.6886C13.6718 2.20617 13.9621 2.90816 13.9621 3.64V3.80442Z" fill="#171A1F"/>
<path d="M12.8401 11C12.8401 9.98378 12.0163 9.16001 11.0001 9.16001C9.98384 9.16001 9.16007 9.98378 9.16007 11C9.16007 12.0162 9.98384 12.84 11.0001 12.84C12.0163 12.84 12.8401 12.0162 12.8401 11ZM14.6801 11C14.6801 13.0324 13.0324 14.68 11.0001 14.68C8.96766 14.68 7.32007 13.0324 7.32007 11C7.32007 8.9676 8.96766 7.32001 11.0001 7.32001C13.0324 7.32001 14.6801 8.9676 14.6801 11Z" fill="#171A1F"/>
</svg>
