<svg width="16" height="16" viewBox="0 0 16 16" fill="none" xmlns="http://www.w3.org/2000/svg">
<path d="M10.6224 10.6224C10.8677 10.3771 11.2556 10.362 11.5188 10.5766L11.5698 10.6224L14.4775 13.5301L14.524 13.5811C14.7384 13.8443 14.7227 14.2323 14.4775 14.4775C14.2323 14.7227 13.8443 14.7384 13.5811 14.524L13.5301 14.4775L10.6224 11.5698L10.5766 11.5188C10.362 11.2556 10.3771 10.8677 10.6224 10.6224Z" fill="#565D6D"/>
<path d="M12.0198 7.32999C12.0198 4.73977 9.92002 2.63999 7.3298 2.63999C4.73959 2.63999 2.6398 4.73977 2.6398 7.32999C2.6398 9.92021 4.73959 12.02 7.3298 12.02C9.92002 12.02 12.0198 9.92021 12.0198 7.32999ZM13.3598 7.32999C13.3598 10.6603 10.6601 13.36 7.3298 13.36C3.99953 13.36 1.2998 10.6603 1.2998 7.32999C1.2998 3.99971 3.99953 1.29999 7.3298 1.29999C10.6601 1.29999 13.3598 3.99971 13.3598 7.32999Z" fill="#565D6D"/>
</svg>
