<svg xmlns="http://www.w3.org/2000/svg" width="24" height="24"  viewBox="0 0 24 24"><g transform="matrix(1 0 0 1 0 0)"  ><g style=""   ><g transform="matrix(1 0 0 1 8 11)"  ><path style="stroke: none; stroke-width: 1; stroke-dasharray: none; stroke-linecap: butt; stroke-dashoffset: 0; stroke-linejoin: miter; stroke-miterlimit: 4; fill: rgb(234,88,12); fill-rule: nonzero; opacity: 1;"  transform=" translate(-8, -11)" d="M 13 18 L 13 6 C 13 5.73478 12.8946 5.48051 12.707 5.29297 C 12.5429 5.12883 12.3276 5.02757 12.0986 5.00488 L 12 5 L 4 5 C 3.73478 5 3.48051 5.10543 3.29297 5.29297 C 3.10543 5.48051 3 5.73478 3 6 L 3 17 L 5 17 C 5.55228 17 6 17.4477 6 18 C 6 18.5523 5.55228 19 5 19 L 3 19 C 2.46957 19 1.96101 18.7891 1.58594 18.4141 C 1.25765 18.0858 1.05515 17.6553 1.00977 17.1973 L 1 17 L 1 6 C 1 5.20435 1.3163 4.44152 1.87891 3.87891 C 2.44152 3.3163 3.20435 3 4 3 L 12 3 L 12.2969 3.01465 C 12.9835 3.08291 13.6289 3.38671 14.1211 3.87891 C 14.6837 4.44152 15 5.20435 15 6 L 15 18 C 15 18.5523 14.5523 19 14 19 C 13.4477 19 13 18.5523 13 18 Z" stroke-linecap="round" /></g><g transform="matrix(1 0 0 1 12 18)"  ><path style="stroke: none; stroke-width: 1; stroke-dasharray: none; stroke-linecap: butt; stroke-dashoffset: 0; stroke-linejoin: miter; stroke-miterlimit: 4; fill: rgb(234,88,12); fill-rule: nonzero; opacity: 1;"  transform=" translate(-12, -18)" d="M 15 17 C 15.5523 17 16 17.4477 16 18 C 16 18.5523 15.5523 19 15 19 L 9 19 C 8.44772 19 8 18.5523 8 18 C 8 17.4477 8.44772 17 9 17 L 15 17 Z" stroke-linecap="round" /></g><g transform="matrix(1 0 0 1 18 13)"  ><path style="stroke: none; stroke-width: 1; stroke-dasharray: none; stroke-linecap: butt; stroke-dashoffset: 0; stroke-linejoin: miter; stroke-miterlimit: 4; fill: rgb(234,88,12); fill-rule: nonzero; opacity: 1;"  transform=" translate(-18, -13)" d="M 21 17 L 21 13.3516 L 20.999 13.3506 L 17.5195 9.00098 L 17.5186 9 L 14 9 C 13.4477 9 13 8.55228 13 8 C 13 7.44772 13.4477 7 14 7 L 17.5215 7 L 17.7451 7.0127 C 17.9673 7.03803 18.1843 7.1007 18.3867 7.19824 C 18.6565 7.32828 18.8931 7.51803 19.0801 7.75195 L 19.0811 7.75098 L 22.5596 12.1006 L 22.6602 12.2373 C 22.8801 12.5649 22.9993 12.9516 23 13.3486 L 23 17 C 23 17.5304 22.7891 18.039 22.4141 18.4141 C 22.039 18.7891 21.5304 19 21 19 L 19 19 C 18.4477 19 18 18.5523 18 18 C 18 17.4477 18.4477 17 19 17 L 21 17 Z" stroke-linecap="round" /></g><g transform="matrix(1 0 0 1 17 18)"  ><path style="stroke: none; stroke-width: 1; stroke-dasharray: none; stroke-linecap: butt; stroke-dashoffset: 0; stroke-linejoin: miter; stroke-miterlimit: 4; fill: rgb(234,88,12); fill-rule: nonzero; opacity: 1;"  transform=" translate(-17, -18)" d="M 18 18 C 18 17.4477 17.5523 17 17 17 C 16.4477 17 16 17.4477 16 18 C 16 18.5523 16.4477 19 17 19 C 17.5523 19 18 18.5523 18 18 Z M 20 18 C 20 19.6569 18.6569 21 17 21 C 15.3431 21 14 19.6569 14 18 C 14 16.3431 15.3431 15 17 15 C 18.6569 15 20 16.3431 20 18 Z" stroke-linecap="round" /></g><g transform="matrix(1 0 0 1 7 18)"  ><path style="stroke: none; stroke-width: 1; stroke-dasharray: none; stroke-linecap: butt; stroke-dashoffset: 0; stroke-linejoin: miter; stroke-miterlimit: 4; fill: rgb(234,88,12); fill-rule: nonzero; opacity: 1;"  transform=" translate(-7, -18)" d="M 8 18 C 8 17.4477 7.55228 17 7 17 C 6.44772 17 6 17.4477 6 18 C 6 18.5523 6.44772 19 7 19 C 7.55228 19 8 18.5523 8 18 Z M 10 18 C 10 19.6569 8.65685 21 7 21 C 5.34315 21 4 19.6569 4 18 C 4 16.3431 5.34315 15 7 15 C 8.65685 15 10 16.3431 10 18 Z" stroke-linecap="round" /></g></g></g></svg>