<svg xmlns="http://www.w3.org/2000/svg" width="20" height="20"  viewBox="0 0 20 20"><g transform="matrix(1 0 0 1 0 0)"  ><g style=""   ><g transform="matrix(0.83 0 0 0.83 10 10)"  ><path style="stroke: none; stroke-width: 1; stroke-dasharray: none; stroke-linecap: butt; stroke-dashoffset: 0; stroke-linejoin: miter; stroke-miterlimit: 4; fill: #D32F2FFF; fill-rule: nonzero; opacity: 1;"  transform=" translate(-12, -12)" d="M 13.3511 1.00426 C 13.6035 0.979434 13.8584 1.01916 14.0913 1.11949 L 14.2056 1.17516 L 14.315 1.23961 C 14.5276 1.37773 14.7014 1.56768 14.8208 1.79137 L 14.8765 1.90563 L 14.9214 2.02477 C 15.0012 2.26511 15.0193 2.52186 14.9732 2.77086 L 14.9439 2.89488 C 14.9403 2.90782 14.9372 2.92116 14.9331 2.93395 L 13.0132 8.95348 L 12.9966 9.00035 L 19.9995 9.00035 C 20.377 8.99962 20.7472 9.10533 21.0669 9.30602 C 21.3874 9.50722 21.6438 9.79572 21.8072 10.1371 C 21.9705 10.4784 22.0342 10.8589 21.9898 11.2347 C 21.9509 11.5635 21.8311 11.8768 21.6421 12.1468 L 21.5562 12.2601 L 21.4976 12.3265 L 11.5972 22.5267 L 11.5962 22.5257 C 11.3775 22.7596 11.0908 22.9195 10.7749 22.9779 C 10.4404 23.0398 10.0945 22.986 9.79446 22.8255 C 9.49446 22.6651 9.25781 22.4067 9.12356 22.0941 C 8.98947 21.7816 8.96599 21.4328 9.05618 21.1048 L 9.06692 21.0658 L 10.9868 15.0463 L 11.0034 15.0004 L 3.99954 15.0004 L 3.99954 14.9994 C 3.62242 14.9999 3.25259 14.8942 2.93313 14.6937 C 2.61282 14.4926 2.35623 14.2048 2.1929 13.8636 C 2.02953 13.5222 1.96587 13.1409 2.01028 12.765 C 2.05474 12.3893 2.2055 12.0334 2.44388 11.7396 L 2.50247 11.6732 L 12.4029 1.47399 C 12.6216 1.23994 12.9092 1.08127 13.2251 1.02281 L 13.3511 1.00426 Z M 4.00247 13.0004 L 10.9995 13.0004 C 11.3221 12.9998 11.6401 13.0771 11.9263 13.2259 C 12.2132 13.3752 12.4602 13.5914 12.645 13.8568 C 12.8299 14.1223 12.9474 14.4294 12.9878 14.7504 C 13.0261 15.055 12.9904 15.363 12.8902 15.6527 L 12.8931 15.6537 L 11.6265 19.6244 L 19.9976 11.0004 L 12.9995 11.0004 L 12.9995 10.9994 C 12.6774 10.9998 12.3596 10.9234 12.0738 10.7748 C 11.7868 10.6255 11.5399 10.4084 11.355 10.1429 C 11.1703 9.87756 11.0527 9.57115 11.0122 9.25035 C 10.9738 8.94533 11.0084 8.63614 11.1089 8.34606 L 11.107 8.34606 L 12.3726 4.37438 L 4.00247 13.0004 Z" stroke-linecap="round" /></g></g></g></svg>