<svg width="20" height="21" viewBox="0 0 20 21" fill="none" xmlns="http://www.w3.org/2000/svg">
<path d="M1.25 5.75H18.25M8.75 18.75C4.979 18.75 3.093 18.75 1.922 17.578C0.751 16.406 0.75 14.522 0.75 10.75V8.75C0.75 4.98 0.75 3.093 1.922 1.922C3.094 0.751 4.979 0.75 8.75 0.75H10.75C14.521 0.75 16.407 0.75 17.578 1.922C18.749 3.094 18.75 4.979 18.75 8.75" stroke="#2563eb" stroke-width="1.5" stroke-linecap="round" stroke-linejoin="round"/>
<path d="M18.75 15.37V13.4C18.749 13.2518 18.6962 13.1087 18.6006 12.9954C18.5051 12.8822 18.3729 12.806 18.227 12.78C17.2963 12.6037 16.3988 12.2832 15.567 11.83C15.4698 11.7768 15.3608 11.7489 15.25 11.7489C15.1392 11.7489 15.0302 11.7768 14.933 11.83C14.1012 12.2832 13.2037 12.6037 12.273 12.78C12.1271 12.806 11.9949 12.8822 11.8994 12.9954C11.8038 13.1087 11.751 13.2518 11.75 13.4V15.37C11.75 17.942 14.292 19.344 15.044 19.703C15.176 19.766 15.324 19.766 15.456 19.703C16.208 19.344 18.75 17.942 18.75 15.37Z" stroke="#2563eb" stroke-width="1.5" stroke-linecap="round" stroke-linejoin="round"/>
</svg>
