<svg width="24" height="24" viewBox="0 0 24 24" fill="none" xmlns="http://www.w3.org/2000/svg">
<path d="M19.996 10.621V19C19.996 19.5304 19.7853 20.0391 19.4102 20.4142C19.0352 20.7893 18.5265 21 17.996 21H6.00403C5.47377 20.9997 4.96532 20.7889 4.59046 20.4139C4.2156 20.0388 4.00503 19.5303 4.00503 19V10.621M7.50203 8.75L8.00203 3M7.50203 8.75C7.50203 11.652 12 11.652 12 8.75M7.50203 8.75C7.50203 11.926 2.34703 11.27 3.06903 8.502L4.11403 4.495C4.22571 4.06703 4.47611 3.68815 4.82605 3.41765C5.17599 3.14714 5.60572 3.00026 6.04803 3H17.952C18.3943 3.00026 18.8241 3.14714 19.174 3.41765C19.5239 3.68815 19.7743 4.06703 19.886 4.495L20.931 8.502C21.653 11.271 16.498 11.926 16.498 8.75M12 8.75V3M12 8.75C12 11.652 16.498 11.652 16.498 8.75M16.498 8.75L15.998 3" stroke="#2563eb" stroke-width="1.5" stroke-linecap="round" stroke-linejoin="round"/>
</svg>
