<svg width="27" height="27" viewBox="0 0 27 27" fill="none" xmlns="http://www.w3.org/2000/svg">
<path d="M22.7925 17.4038C22.7925 17.4038 22.7137 17.3588 22.68 17.3475C22.23 17.1 21.735 16.9875 21.2288 16.9313L20.0138 9H21.3862C22.005 9 22.5112 8.49375 22.5112 7.875V5.625C22.5112 5.00625 22.005 4.5 21.3862 4.5H19.26C18.7988 3.16125 17.5387 2.25 16.0763 2.25H13.5113V4.5H16.0763C16.3456 4.49965 16.6062 4.59596 16.8106 4.77144C17.015 4.94692 17.1496 5.18992 17.19 5.45625L19.0125 17.3138C18.495 17.5838 18.0337 17.955 17.6737 18.4387C17.5162 18.6525 17.3925 18.8775 17.2688 19.1138H14.625V7.875C14.625 7.25625 14.1187 6.75 13.5 6.75H3.375C2.75625 6.75 2.25 7.25625 2.25 7.875V12.375C2.25 12.9937 2.75625 13.5 3.375 13.5H3.40875C2.7 14.445 2.25 15.6038 2.25 16.875V20.25C2.25 20.8687 2.75625 21.375 3.375 21.375H4.55625C4.8375 23.2763 6.4575 24.75 8.4375 24.75C10.4175 24.75 12.0375 23.2763 12.3187 21.375H16.9313C17.2125 23.2763 18.8325 24.75 20.8125 24.75C22.9837 24.75 24.75 22.9837 24.75 20.8125C24.75 19.4175 23.9963 18.1125 22.7925 17.4038ZM4.5 9H12.375V11.25H4.5V9ZM8.4375 22.5C8.18827 22.5001 7.94211 22.445 7.71676 22.3385C7.49141 22.232 7.29248 22.0769 7.13431 21.8843C6.97613 21.6917 6.86265 21.4664 6.80203 21.2246C6.74141 20.9829 6.73517 20.7307 6.78375 20.4862C6.84 20.2275 6.94125 19.98 7.0875 19.8C7.21125 19.6313 7.36875 19.5075 7.5375 19.395H7.54875C7.88625 19.1925 8.28 19.1138 8.6625 19.1588H8.73C8.91 19.1925 9.10125 19.2488 9.25875 19.3388C9.28125 19.35 9.30375 19.3612 9.3375 19.3725C9.73125 19.6312 10.0013 20.0138 10.0913 20.4525C10.1138 20.565 10.125 20.6887 10.125 20.8013C10.125 21.735 9.37125 22.4888 8.4375 22.4888V22.5ZM20.8125 22.5C20.4988 22.5008 20.191 22.4141 19.9239 22.2495C19.6568 22.0849 19.441 21.849 19.3007 21.5684C19.1603 21.2878 19.1012 20.9736 19.1298 20.6612C19.1583 20.3487 19.2736 20.0505 19.4625 19.8C19.7088 19.4719 20.0658 19.2443 20.4671 19.1595C20.8685 19.0747 21.287 19.1384 21.645 19.3388C21.9052 19.4877 22.1221 19.702 22.274 19.9605C22.426 20.219 22.5077 20.5127 22.5112 20.8125C22.5112 21.7463 21.7575 22.5 20.8237 22.5H20.8125Z" fill="#2563eb"/>
</svg>
