<svg width="22" height="22" viewBox="0 0 22 22" fill="none" xmlns="http://www.w3.org/2000/svg">
<path d="M3.47787 14.8872C1.93287 13.3412 1.15987 12.5692 0.872866 11.5662C0.584866 10.5632 0.830866 9.49825 1.32287 7.36925L1.60587 6.14125C2.01887 4.34925 2.22587 3.45325 2.83887 2.83925C3.45187 2.22525 4.34887 2.01925 6.14087 1.60625L7.36887 1.32225C9.49887 0.831245 10.5629 0.585245 11.5659 0.872245C12.5689 1.16025 13.3409 1.93325 14.8859 3.47825L16.7159 5.30825C19.4069 7.99825 20.7499 9.34225 20.7499 11.0122C20.7499 12.6832 19.4059 14.0272 16.7169 16.7162C14.0269 19.4062 12.6829 20.7502 11.0119 20.7502C9.34187 20.7502 7.99687 19.4062 5.30787 16.7172L3.47787 14.8872Z" stroke="#2563eb" stroke-width="1.5"/>
<path d="M14.1399 14.1402C14.7249 13.5532 14.8039 12.6832 14.3159 12.1942C13.8279 11.7052 12.9569 11.7852 12.3709 12.3712C11.7859 12.9572 10.9149 13.0362 10.4269 12.5482C9.93889 12.0602 10.0179 11.1892 10.6039 10.6042M10.6039 10.6042L10.2499 10.2502M10.6039 10.6042C10.9349 10.2722 11.3569 10.1042 11.7499 10.1072M14.4929 14.4932L14.1389 14.1392C13.7389 14.5402 13.2039 14.7042 12.7499 14.6102" stroke="#2563eb" stroke-width="1.5" stroke-linecap="round"/>
<path d="M8.77108 9.04349C9.55213 8.26244 9.55213 6.99611 8.77108 6.21506C7.99003 5.43401 6.7237 5.43401 5.94266 6.21506C5.16161 6.99611 5.16161 8.26244 5.94266 9.04349C6.7237 9.82453 7.99003 9.82453 8.77108 9.04349Z" stroke="#2563eb" stroke-width="1.5"/>
</svg>
