<svg xmlns="http://www.w3.org/2000/svg" width="24" height="24"  viewBox="0 0 24 24"><g transform="matrix(1 0 0 1 0 0)"  ><g style=""   ><g transform="matrix(1 0 0 1 12 16.5)"  ><path style="stroke: none; stroke-width: 1; stroke-dasharray: none; stroke-linecap: butt; stroke-dashoffset: 0; stroke-linejoin: miter; stroke-miterlimit: 4; fill: rgb(147,51,234); fill-rule: nonzero; opacity: 1;"  transform=" translate(-12, -16.5)" d="M 14 21 L 14 13 L 10 13 L 10 21 C 10 21.5523 9.55228 22 9 22 C 8.44772 22 8 21.5523 8 21 L 8 13 C 8 12.4696 8.21087 11.961 8.58594 11.5859 C 8.96101 11.2109 9.46957 11 10 11 L 14 11 C 14.5304 11 15.039 11.2109 15.4141 11.5859 C 15.7891 11.961 16 12.4696 16 13 L 16 21 C 16 21.5523 15.5523 22 15 22 C 14.4477 22 14 21.5523 14 21 Z" stroke-linecap="round" /></g><g transform="matrix(1 0 0 1 12 11.5)"  ><path style="stroke: none; stroke-width: 1; stroke-dasharray: none; stroke-linecap: butt; stroke-dashoffset: 0; stroke-linejoin: miter; stroke-miterlimit: 4; fill: rgb(147,51,234); fill-rule: nonzero; opacity: 1;"  transform=" translate(-12, -11.5)" d="M 20 9.99957 L 19.9941 9.89117 C 19.9824 9.78322 19.9531 9.67762 19.9072 9.57867 C 19.846 9.44674 19.7566 9.32979 19.6455 9.2359 L 19.6406 9.23102 L 12.6455 3.2359 L 12.6455 3.23688 C 12.4875 3.10334 12.2926 3.02251 12.0879 3.00446 L 12 3.00055 C 11.7637 3.00055 11.535 3.08433 11.3545 3.23688 L 11.3535 3.2359 L 4.35938 9.23102 L 4.35449 9.2359 C 4.24342 9.32979 4.15399 9.44674 4.09277 9.57867 C 4.0316 9.71054 4 9.85421 4 9.99957 L 4 18.9996 C 4 19.2648 4.10543 19.52 4.29297 19.7076 C 4.48048 19.895 4.73491 19.9996 5 19.9996 L 19 19.9996 C 19.2651 19.9996 19.5195 19.895 19.707 19.7076 C 19.8946 19.52 20 19.2648 20 18.9996 L 20 9.99957 Z M 22 18.9996 C 22 19.7952 21.6837 20.559 21.1211 21.1216 C 20.5585 21.6841 19.7955 21.9996 19 21.9996 L 5 21.9996 C 4.20447 21.9996 3.44149 21.6841 2.87891 21.1216 C 2.3163 20.559 2 19.7952 2 18.9996 L 2 9.99957 C 2 9.56347 2.09479 9.13248 2.27832 8.73688 C 2.46197 8.34108 2.73025 7.99023 3.06348 7.70856 L 10.0586 1.71344 L 10.0635 1.70953 L 10.2734 1.54742 C 10.7771 1.19289 11.3798 1.00055 12 1.00055 L 12.2646 1.01227 C 12.7905 1.05883 13.2948 1.24356 13.7266 1.54742 L 13.9365 1.70953 L 13.9414 1.71344 L 20.9365 7.70856 L 21.0586 7.81696 C 21.3356 8.07826 21.561 8.39052 21.7217 8.73688 C 21.9052 9.13248 22 9.56347 22 9.99957 L 22 18.9996 Z" stroke-linecap="round" /></g></g></g></svg>