<svg xmlns="http://www.w3.org/2000/svg" width="16" height="16"  viewBox="0 0 16 16"><g transform="matrix(1 0 0 1 0 0)"  ><g style=""   ><g transform="matrix(0.67 0 0 0.67 8 8)"  ><path style="stroke: none; stroke-width: 1; stroke-dasharray: none; stroke-linecap: butt; stroke-dashoffset: 0; stroke-linejoin: miter; stroke-miterlimit: 4; fill: rgb(26,115,232); fill-rule: nonzero; opacity: 1;"  transform=" translate(-12, -12)" d="M 18.9912 9.65332 C 18.9055 7.92303 18.181 6.28061 16.9502 5.0498 C 15.7194 3.819 14.077 3.09452 12.3467 3.00879 L 12 3 C 10.1435 3 8.36256 3.73705 7.0498 5.0498 C 5.73705 6.36256 5 8.14348 5 10 C 5 12.1593 6.21679 14.4871 7.79785 16.5645 C 9.32566 18.5717 11.0795 20.1963 12 20.9951 C 12.9205 20.1963 14.6743 18.5717 16.2021 16.5645 C 17.7832 14.4871 19 12.1593 19 10 L 18.9912 9.65332 Z M 21 10 C 21 12.8337 19.4474 15.603 17.7939 17.7754 C 16.327 19.7028 14.6832 21.2859 13.6553 22.2041 L 13.2549 22.5557 C 13.2379 22.5704 13.2201 22.5851 13.2021 22.5986 C 12.899 22.8266 12.538 22.9626 12.1621 22.9932 L 12 23 C 11.6207 23 11.2504 22.8919 10.9316 22.6904 L 10.7979 22.5986 L 10.7451 22.5557 C 9.78983 21.7308 7.88248 19.978 6.20605 17.7754 C 4.55262 15.603 3 12.8337 3 10 C 3 7.61305 3.94791 5.32357 5.63574 3.63574 C 7.32357 1.94791 9.61305 1 12 1 C 14.3869 1 16.6764 1.94791 18.3643 3.63574 C 20.0521 5.32357 21 7.61305 21 10 Z" stroke-linecap="round" /></g><g transform="matrix(0.67 0 0 0.67 8 6.67)"  ><path style="stroke: none; stroke-width: 1; stroke-dasharray: none; stroke-linecap: butt; stroke-dashoffset: 0; stroke-linejoin: miter; stroke-miterlimit: 4; fill: rgb(26,115,232); fill-rule: nonzero; opacity: 1;"  transform=" translate(-12, -10)" d="M 14 10 C 14 8.89543 13.1046 8 12 8 C 10.8954 8 10 8.89543 10 10 C 10 11.1046 10.8954 12 12 12 C 13.1046 12 14 11.1046 14 10 Z M 16 10 C 16 12.2091 14.2091 14 12 14 C 9.79086 14 8 12.2091 8 10 C 8 7.79086 9.79086 6 12 6 C 14.2091 6 16 7.79086 16 10 Z" stroke-linecap="round" /></g></g></g></svg>