<svg xmlns="http://www.w3.org/2000/svg" width="22" height="22"  viewBox="0 0 22 22"><g transform="matrix(1 0 0 1 0 0)"  ><g style=""   ><g transform="matrix(0.92 0 0 0.92 11 11.46)"  ><path style="stroke: none; stroke-width: 1; stroke-dasharray: none; stroke-linecap: butt; stroke-dashoffset: 0; stroke-linejoin: miter; stroke-miterlimit: 4; fill: #2563EBFF; fill-rule: nonzero; opacity: 1;"  transform=" translate(-12, -12.5)" d="M 18.9998 7 C 18.9998 6.73478 18.8943 6.48051 18.7068 6.29297 C 18.5426 6.12884 18.3274 6.02752 18.0984 6.00488 L 17.9998 6 L 5.99977 6 C 5.73465 6.00007 5.48021 6.10549 5.29274 6.29297 C 5.10529 6.48049 4.99977 6.73485 4.99977 7 L 4.99977 15 L 18.9998 15 L 18.9998 7 Z M 3.61403 18.999 L 3.61305 19 L 20.3875 19 L 20.3865 18.999 L 19.3836 17 L 4.61696 17 L 3.61403 18.999 Z M 20.9998 15.7637 L 22.1726 18.0996 L 22.2273 18.2158 C 22.3445 18.4907 22.3988 18.7893 22.3855 19.0889 C 22.3703 19.431 22.2673 19.7637 22.0867 20.0547 C 21.906 20.3457 21.6532 20.5855 21.3533 20.751 C 21.0552 20.9154 20.72 21.0003 20.3797 20.999 L 20.3797 21 L 3.61989 21 L 3.61989 20.999 C 3.27977 21.0002 2.94511 20.9153 2.64723 20.751 C 2.34724 20.5855 2.09453 20.3458 1.91383 20.0547 C 1.73318 19.7636 1.63022 19.4311 1.61501 19.0889 C 1.59982 18.7466 1.67273 18.4056 1.82692 18.0996 L 2.99977 15.7637 L 2.99977 7 C 2.99977 6.20441 3.31615 5.4415 3.87868 4.87891 C 4.44122 4.31636 5.20422 4.00007 5.99977 4 L 17.9998 4 L 18.2966 4.01465 C 18.9834 4.08286 19.6296 4.38665 20.1218 4.87891 C 20.6842 5.44148 20.9998 6.20452 20.9998 7 L 20.9998 15.7637 Z" stroke-linecap="round" /></g></g></g></svg>