<svg width="31" height="31" viewBox="0 0 31 31" fill="none" xmlns="http://www.w3.org/2000/svg">
<path d="M16.5559 3.51656C15.9602 2.96437 15.0398 2.96437 14.4489 3.51656L3.5989 13.5916C3.1339 14.0275 2.9789 14.7008 3.2114 15.2917C3.4439 15.8827 4.01062 16.275 4.64999 16.275H5.42499V24.8C5.42499 26.5098 6.81515 27.9 8.52499 27.9H22.475C24.1848 27.9 25.575 26.5098 25.575 24.8V16.275H26.35C26.9894 16.275 27.5609 15.8827 27.7934 15.2917C28.0259 14.7008 27.8709 14.0227 27.4059 13.5916L16.5559 3.51656ZM14.725 18.6H16.275C17.5586 18.6 18.6 19.6414 18.6 20.925V25.575H12.4V20.925C12.4 19.6414 13.4414 18.6 14.725 18.6Z" fill="#2563eb"/>
</svg>
