<svg width="30" height="30" viewBox="0 0 30 30" fill="none" xmlns="http://www.w3.org/2000/svg">
<path d="M27.4987 10C27.4987 9.77317 27.4369 9.55064 27.32 9.35625L23.9337 3.7125C23.7107 3.34355 23.3964 3.03822 23.0212 2.82587C22.646 2.61351 22.2224 2.50129 21.7913 2.5H8.20625C7.33375 2.5 6.5125 2.965 6.06375 3.71375L2.6775 9.35625C2.56061 9.55064 2.49882 9.77317 2.49875 10C2.49875 11.2563 2.98125 12.3925 3.74875 13.2725V25C3.74875 25.3315 3.88044 25.6495 4.11487 25.8839C4.34929 26.1183 4.66723 26.25 4.99875 26.25H14.9987C15.3303 26.25 15.6482 26.1183 15.8826 25.8839C16.1171 25.6495 16.2487 25.3315 16.2487 25V18.75H21.2488V25C21.2488 25.3315 21.3804 25.6495 21.6149 25.8839C21.8493 26.1183 22.1672 26.25 22.4987 26.25H24.9987C25.3303 26.25 25.6482 26.1183 25.8826 25.8839C26.1171 25.6495 26.2487 25.3315 26.2487 25V13.2725C27.0162 12.3925 27.4987 11.2563 27.4987 10ZM24.9787 10.3138C24.9024 10.9176 24.6083 11.4728 24.1517 11.8753C23.6951 12.2778 23.1074 12.4999 22.4987 12.5C21.12 12.5 19.9987 11.3787 19.9987 10C19.9987 9.915 19.9675 9.84 19.95 9.76L19.975 9.755L19.0237 5H21.7913L24.9787 10.3138ZM12.5075 10.0812L13.5225 5H16.4737L17.49 10.0812C17.4462 11.4225 16.3487 12.5 14.9987 12.5C13.6487 12.5 12.5512 11.4225 12.5075 10.0812ZM8.20625 5H10.9737L10.0237 9.755L10.0487 9.76C10.03 9.84 9.99875 9.915 9.99875 10C9.99875 11.3787 8.8775 12.5 7.49875 12.5C6.89009 12.4999 6.30235 12.2778 5.84577 11.8753C5.38919 11.4728 5.09514 10.9176 5.01875 10.3138L8.20625 5ZM12.4987 20H7.49875V16.25H12.4987V20Z" fill="#2563eb"/>
</svg>
