<svg width="24" height="24" viewBox="0 0 24 24" fill="none" xmlns="http://www.w3.org/2000/svg">
<path d="M19 7C19 6 18 5.5 17.5 5.5H14V7H17.5V9.5L13.5 14.5H10V9H6C3.79 9 2 10.79 2 13V16H4.5C4.5 17.66 6 18.5 7 18.5C8 18.5 9.5 17.66 9.5 16H14.48L19 10.35V7ZM3.5 14.5V13C3.5 11.9 4.9 10.5 6 10.5H8.5V14.5H3.5ZM7 17C6.45 17 6 16.55 6 16H8C8 16.55 7.55 17 7 17Z" fill="#2563eb"/>
<path d="M5 6.5H10V8H5V6.5ZM18.5 13C17.1167 13 16 14.1167 16 15.5C16 16.8833 17.1167 18 18.5 18C19.8833 18 21 16.8833 21 15.5C21 14.1167 19.8833 13 18.5 13ZM18.5833 16.8333C17.8042 16.8333 17.1667 16.2333 17.1667 15.5C17.1667 14.7667 17.8042 14.1667 18.5833 14.1667C19.3625 14.1667 20 14.7667 20 15.5C20 16.2333 19.3625 16.8333 18.5833 16.8333Z" fill="#2563eb"/>
</svg>
