<svg xmlns="http://www.w3.org/2000/svg" width="20" height="20"  viewBox="0 0 20 20"><g transform="matrix(1 0 0 1 0 0)"  ><g style=""   ><g transform="matrix(0.83 0 0 0.83 10 9.61)"  ><path style="stroke: none; stroke-width: 1; stroke-dasharray: none; stroke-linecap: butt; stroke-dashoffset: 0; stroke-linejoin: miter; stroke-miterlimit: 4; fill: #FBC02DFF; fill-rule: nonzero; opacity: 1;"  transform=" translate(-12, -11.54)" d="M 12.2121 1.01477 C 12.3522 1.03439 12.4889 1.07377 12.6183 1.13098 L 12.8068 1.23059 L 12.9796 1.35461 C 13.0885 1.44534 13.184 1.55102 13.2638 1.66809 L 13.3712 1.85168 L 13.3712 1.85266 L 15.6818 6.53137 L 15.7492 6.64856 C 15.8234 6.76188 15.9174 6.86138 16.0275 6.94153 C 16.1744 7.0484 16.3458 7.11826 16.5255 7.14465 L 16.5246 7.14465 L 21.6906 7.90051 L 21.6896 7.90051 C 21.9014 7.93124 22.1034 8.00626 22.2833 8.11926 L 22.4562 8.24426 L 22.6085 8.3927 C 22.7033 8.49831 22.7827 8.6167 22.8449 8.74426 L 22.925 8.94153 L 22.9767 9.14856 C 23.0136 9.35775 23.0065 9.57361 22.9552 9.78137 C 22.8868 10.0583 22.7425 10.3107 22.5382 10.5099 L 22.5373 10.5109 L 18.8019 14.1486 C 18.6718 14.2754 18.574 14.4318 18.5177 14.6046 C 18.4615 14.7774 18.4482 14.9616 18.4787 15.1407 L 19.3595 20.2765 L 19.382 20.4894 C 19.3893 20.7026 19.3521 20.916 19.2716 21.1154 C 19.1642 21.3812 18.9841 21.6119 18.7521 21.7804 C 18.5201 21.9489 18.2452 22.0486 17.9591 22.0685 C 17.6731 22.0884 17.3871 22.0275 17.1339 21.8927 L 17.1339 21.8917 L 12.5207 19.4669 C 12.4001 19.4037 12.2693 19.3631 12.1349 19.3468 L 11.9992 19.339 C 11.8177 19.339 11.6384 19.3817 11.4777 19.4659 L 11.4787 19.4669 L 6.86245 21.8927 L 6.86343 21.8937 C 6.61042 22.0275 6.32474 22.0878 6.03921 22.0675 C 5.75381 22.0472 5.47963 21.9477 5.24819 21.7794 C 5.0167 21.6111 4.83698 21.3807 4.72964 21.1154 C 4.6491 20.9161 4.612 20.7026 4.61929 20.4894 L 4.64077 20.2775 L 5.52163 15.1417 L 5.53628 15.007 C 5.5429 14.8714 5.52474 14.7354 5.48257 14.6056 C 5.44039 14.4759 5.37518 14.3549 5.29019 14.2491 L 5.19839 14.1486 L 1.46206 10.5118 L 1.46304 10.5109 C 1.25847 10.3123 1.11316 10.061 1.04409 9.7843 C 0.974731 9.50628 0.983993 9.21408 1.07241 8.94153 L 1.15249 8.74329 C 1.24601 8.55141 1.37945 8.38063 1.54409 8.24231 L 1.71694 8.11633 C 1.83748 8.04097 1.96803 7.98283 2.10464 7.94348 L 2.31362 7.89856 L 7.47476 7.14465 L 7.60757 7.11633 C 7.73854 7.08075 7.86239 7.02173 7.9728 6.94153 C 8.11977 6.83474 8.23898 6.69423 8.31948 6.53137 L 10.6281 1.85266 L 10.6291 1.85168 L 10.7365 1.66809 C 10.8561 1.49279 11.011 1.34341 11.1925 1.23059 L 11.381 1.13098 C 11.5753 1.04504 11.7862 1.00012 12.0001 1.00012 L 12.2121 1.01477 Z M 17.3898 20.6241 L 17.3898 20.6193 L 17.3878 20.6115 L 17.3898 20.6241 Z M 18.0695 20.1251 L 18.0744 20.1271 L 18.0675 20.1232 L 18.0695 20.1251 Z M 5.92788 20.1261 L 5.93081 20.1251 L 5.93374 20.1232 C 5.93184 20.1241 5.92977 20.1251 5.92788 20.1261 Z M 10.1125 7.41614 L 10.1125 7.41711 C 9.88846 7.87044 9.55765 8.26247 9.14858 8.55969 C 8.73931 8.85697 8.26341 9.04935 7.76284 9.12219 L 7.76382 9.12317 L 3.53726 9.74036 L 6.5939 12.7159 L 6.72573 12.8517 C 7.02281 13.1784 7.24788 13.5651 7.38491 13.9865 C 7.52192 14.4078 7.56678 14.8531 7.5187 15.2921 L 7.49233 15.4796 L 6.77163 19.6827 L 10.548 17.6974 L 10.548 17.6964 L 10.7179 17.6134 C 11.12 17.4324 11.5568 17.339 11.9992 17.339 L 12.1886 17.3448 C 12.6288 17.3716 13.0596 17.4907 13.4513 17.6964 L 17.2287 19.6827 L 16.507 15.4796 L 16.507 15.4786 C 16.4218 14.9798 16.4598 14.4677 16.6164 13.9865 C 16.7729 13.5052 17.044 13.0691 17.4064 12.7159 L 20.4601 9.74133 L 16.2355 9.12317 L 16.2345 9.12317 C 15.7348 9.04978 15.2602 8.85669 14.8517 8.55969 C 14.4431 8.26252 14.1127 7.87005 13.8888 7.41711 L 13.8878 7.41711 L 11.9992 3.59192 L 10.1125 7.41614 Z" stroke-linecap="round" /></g></g></g></svg>