<svg width="21" height="20" viewBox="0 0 21 20" fill="none" xmlns="http://www.w3.org/2000/svg">
<path d="M20.9 17.2L16.8 13.1C17.2 12.1 17 10.8 16.1 10C15.2 9.1 13.9 8.9 12.8 9.4L14.7 11.3L13.3 12.7L11.3 10.7C10.8 11.8 11 13.1 11.9 14.1C12.8 15 14 15.2 15 14.8L19.1 18.9C19.3 19.1 19.6 19.1 19.7 18.9L20.7 17.9C21 17.6 21 17.3 20.9 17.2ZM8 8C10.2 8 12 6.2 12 4C12 1.8 10.2 0 8 0C5.8 0 4 1.8 4 4C4 6.2 5.8 8 8 8ZM8 2C9.1 2 10 2.9 10 4C10 5.1 9.1 6 8 6C6.9 6 6 5.1 6 4C6 2.9 6.9 2 8 2ZM11 16H0V13C0 10.3 5.3 9 8 9C8.5 9 9.2 9.1 9.9 9.2C9.5 9.7 9.3 10.3 9.1 11C8.7 11 8.4 10.9 8 10.9C5 10.9 1.9 12.4 1.9 13V14.1H9.5C9.8 14.9 10.4 15.5 11 16Z" fill="#2563eb"/>
</svg>
