<svg width="24" height="24" viewBox="0 0 24 24" fill="none" xmlns="http://www.w3.org/2000/svg">
<path d="M22 22H2M2 11L6.063 7.75M22 11L13.874 4.5C13.3421 4.07449 12.6812 3.84267 12 3.84267C11.3188 3.84267 10.6579 4.07449 10.126 4.5L9.344 5.125M15.5 5.5V3.5C15.5 3.36739 15.5527 3.24021 15.6464 3.14645C15.7402 3.05268 15.8674 3 16 3H18.5C18.6326 3 18.7598 3.05268 18.8536 3.14645C18.9473 3.24021 19 3.36739 19 3.5V8.5M4 22V9.5M20 9.5V13.5M20 22V17.5" stroke="#2563eb" stroke-width="1.5" stroke-linecap="round"/>
<path d="M15 22V17C15 15.586 15 14.879 14.56 14.44C14.122 14 13.415 14 12 14C10.585 14 9.879 14 9.44 14.44M9 22V17" stroke="#2563eb" stroke-width="1.5" stroke-linecap="round" stroke-linejoin="round"/>
<path d="M14 9.5C14 10.0304 13.7893 10.5391 13.4142 10.9142C13.0391 11.2893 12.5304 11.5 12 11.5C11.4696 11.5 10.9609 11.2893 10.5858 10.9142C10.2107 10.5391 10 10.0304 10 9.5C10 8.96957 10.2107 8.46086 10.5858 8.08579C10.9609 7.71071 11.4696 7.5 12 7.5C12.5304 7.5 13.0391 7.71071 13.4142 8.08579C13.7893 8.46086 14 8.96957 14 9.5Z" stroke="#2563eb" stroke-width="1.5"/>
</svg>
